<?xml version="1.0" encoding="UTF-8"?> <!-- Generator: Adobe Illustrator 24.1.1, SVG Export Plug-In . SVG Version: 6.00 Build 0) --> <svg xmlns="http://www.w3.org/2000/svg" xmlns:xlink="http://www.w3.org/1999/xlink" version="1.1" id="Layer_1" x="0px" y="0px" viewBox="0 0 342.7 76.3" style="enable-background:new 0 0 342.7 76.3;" xml:space="preserve"> <style type="text/css"> .st0{fill:#0072BC;} .st1{fill:#0072BC;stroke:#0072BC;stroke-miterlimit:10;} </style> <g> <g> <path class="st0" d="M128.8,39.7h-0.3c-0.8,8.3-1.3,15-2.3,25.1H121l3.7-33.2h6.9c4,12.2,5.8,18.3,8.1,25.8h0.3 c2.4-7.5,4.2-13.5,8.2-25.8h6.7l3.6,33.2h-5.7c-1-10.1-1.5-16.8-2.2-25.1h-0.3c-2.6,8.3-4.7,15-8,25.1h-5.9 C133.3,54.7,131.3,48,128.8,39.7z"></path> <path class="st0" d="M173.1,39.9c7.5,0,10.3,4.9,10.3,11.8v2.1h-15.5c0.1,5.4,2.8,7.3,6.3,7.3c2.5-0.1,5-0.9,7.1-2.4l1.2,4.7 c-2.8,1.3-5.9,1.9-9,1.9c-8.6,0-12-5.3-12.1-12.8C161.5,44.9,165.9,39.9,173.1,39.9z M168,49.7h9.2c0-3.2-1.1-5.9-4.3-5.9 S168,46.6,168,49.7L168,49.7z"></path> <path class="st0" d="M203,48.9c0-2.4-0.6-4.9-3.4-4.9c-3.9,0-5.1,3.1-5.1,7.2v13.6h-6.2V40.4h5.7v2.3c2-2,4.8-3,7.6-2.8 c4,0,5.2,1.4,6.4,2.9c2.1-1.8,4.7-2.8,7.5-2.9c6.8,0,8.6,3.2,8.6,9.2v15.6h-6.2V49.1c0-3.3-0.8-5.1-3.5-5.1c-3.8,0-5,3.2-5,7.2 v13.6H203V48.9z"></path> <path class="st0" d="M254.2,31.6l-12.9,33.2h-5.6l-12.9-33.2h6.9c3.4,8.9,6.2,17.3,8.9,25.2h0.2c2.7-7.8,5.7-16.3,9.1-25.2 L254.2,31.6z"></path> <path class="st0" d="M263,39.9c7.5,0,10.3,4.9,10.3,11.8v2.1h-15.5c0.1,5.4,2.8,7.3,6.3,7.3c2.5-0.1,5-0.9,7.1-2.4l1.2,4.7 c-2.8,1.3-5.9,1.9-9,1.9c-8.6,0-12-5.3-12.1-12.8C251.4,44.9,255.8,39.9,263,39.9z M257.9,49.7h9.2c0-3.2-1.1-5.9-4.3-5.9 S258,46.6,257.9,49.7L257.9,49.7z"></path> <path class="st0" d="M278.2,40.4h5.7v2.3c1.8-1.7,4.1-2.7,6.6-2.6c1.2,0,2.3,0.2,3.5,0.5l-1.2,4.8c-1-0.5-2.2-0.8-3.3-0.8 c-1.4-0.1-2.8,0.5-3.7,1.5c-1.2,1.6-1.2,4-1.2,6.3v12.2h-6.2L278.2,40.4z"></path> <path class="st0" d="M296.3,70.2c2,1.4,4.3,2.1,6.7,2.1c5,0,6.9-3.3,6.9-8.7v-2c-1.8,1.5-4.1,2.3-6.5,2.3c-6.9,0-9.9-5.2-9.9-11.4 c0-9.4,6.7-12.6,14.8-12.6c2.6,0,5.2,0.3,7.8,0.7v21.1c0,5.2-0.7,7.3-1.1,8.2c-2.2,4.7-7.2,6.4-12.4,6.4c-2.6,0-5.2-0.5-7.7-1.4 L296.3,70.2z M304.9,59.9c3.5,0,5-2.7,5-6.2v-9.3c-0.9-0.3-1.8-0.5-2.7-0.5c-5.3,0-7.2,3.6-7.2,8.9 C300,55.8,301.2,59.9,304.9,59.9z"></path> <path class="st0" d="M332.4,39.9c7.5,0,10.3,4.9,10.3,11.8v2.1h-15.5c0.1,5.4,2.8,7.3,6.3,7.3c2.5-0.1,5-0.9,7.1-2.4l1.2,4.7 c-2.8,1.3-5.9,1.9-9,1.9c-8.6,0-12-5.3-12.1-12.8C320.7,44.9,325.1,39.9,332.4,39.9z M327.3,49.7h9.2c0-3.2-1.1-5.9-4.3-5.9 S327.3,46.6,327.3,49.7z"></path> </g> <path class="st1" d="M74.4,64.7L56.2,35.3H56L38,64.7H0L35.4,0.4C35.5,0.2,35.6,0,35.9,0h1c0.2,0,0.5,0.1,0.6,0.4L55.6,30h0.6 L74.4,0.4C74.5,0.2,74.7,0,74.9,0h1.2c0.3,0,0.4,0.3,0.5,0.4L110.2,62l1.9,2.8H74.4V64.7z M19.5,32.4c5.7,9.8,11.5,19.3,17.2,29.1 c6-9.8,11.7-19.3,17.7-29.1H19.5z M57.4,32.4c6,9.8,12,19.3,18,29.1c5.7-9.8,11.6-19.3,17.2-29.1H57.4z"></path> </g> </svg> 